<?xml version="1.0" encoding="utf-8"?>
<!-- Generator: Adobe Illustrator 15.1.0, SVG Export Plug-In . SVG Version: 6.00 Build 0)  -->
<!DOCTYPE svg PUBLIC "-//W3C//DTD SVG 1.1//EN" "http://www.w3.org/Graphics/SVG/1.1/DTD/svg11.dtd">
<svg version="1.1" id="Calque_1" xmlns="http://www.w3.org/2000/svg" xmlns:xlink="http://www.w3.org/1999/xlink" x="0px" y="0px"
	 width="594.276px" height="85.335px" viewBox="0 0 594.276 85.335" enable-background="new 0 0 594.276 85.335"
	 xml:space="preserve">
<g>
	<defs>
		<rect id="SVGID_1_" y="0" width="594.276" height="85.335"/>
	</defs>
	<clipPath id="SVGID_2_">
		<use xlink:href="#SVGID_1_"  overflow="visible"/>
	</clipPath>
	<path clip-path="url(#SVGID_2_)" d="M98.136,0.731V0h-7.314H83.75H72.78h-1.829L53.151,51.445L35.231,0h-15.97h-6.705H6.705v0.731
		h0.366c4.023,0,7.315,3.292,7.315,7.314v61.93c0,7.924-6.461,14.629-14.386,14.629v0.731h29.38v-0.731
		c-7.924,0-14.263-6.705-14.263-14.629V7.437l26.941,77.899l0.122-0.244L69.244,7.07c0,0.366,0.122,0.61,0.122,0.975V77.29
		c0,4.022-3.292,7.314-7.437,7.314v0.731h7.437h3.414h9.021h9.021h7.314v-0.731c-4.023,0-7.314-3.292-7.314-7.314V8.045
		C90.822,4.023,94.113,0.731,98.136,0.731"/>
	<path clip-path="url(#SVGID_2_)" d="M140.438,0.731V0h-7.437h-6.948h-10.972h-3.535h-7.315v0.731c4.023,0,7.315,3.292,7.315,7.314
		V77.29c0,4.022-3.292,7.314-7.315,7.314v0.731h7.315h3.535h9.022h8.898h7.437v-0.731c-4.145,0-7.437-3.292-7.437-7.314V8.045
		C133.001,4.023,136.293,0.731,140.438,0.731"/>
	<path clip-path="url(#SVGID_2_)" d="M206.931,0h-23.528h-24.869v23.041h0.731c3.291-12.801,11.337-22.31,25.113-22.31v71.562v4.998
		c0,4.021-3.17,7.313-7.314,7.313v0.731h36.206v-0.731c-4.023,0-7.314-3.292-7.314-7.313v-4.998V0.731
		c13.775,0,21.821,9.509,25.113,22.31h0.731V0H206.931z"/>
	<path clip-path="url(#SVGID_2_)" d="M294.383,78.997C283.289,47.3,281.582,42.059,266.953,0l-25.6,70.706
		c-2.56,6.827-9.387,12.922-16.458,13.897v0.731h29.746v-0.731c-6.827,0-12.313-5.364-12.313-12.19c0-1.463,0.244-2.804,0.609-4.023
		l0.854-2.194h23.406l3.536,10.24c1.341,4.023-1.951,8.168-5.974,8.168v0.731h37.547v-0.731
		C298.649,84.604,295.48,82.288,294.383,78.997 M244.035,65.464l11.703-32.306c5.486,15.97,7.315,21.09,11.215,32.306H244.035z"/>
	<path clip-path="url(#SVGID_2_)" d="M364.479,63.757c-3.047,12.069-14.02,20.847-26.941,20.847h-0.366V27.429v-5.364V8.046
		c0-4.023,3.291-7.315,7.437-7.315V0h-6.217h-4.634h-14.507h-3.534h-7.314v0.731c4.021,0,7.314,3.292,7.314,7.315v14.019V77.29
		c0,4.022-3.293,7.314-7.314,7.314v0.731h25.355h5.487h25.965v-6.583V63.757H364.479z"/>
	<path clip-path="url(#SVGID_2_)" d="M401.296,0.731c13.896,0,25.601,9.509,28.893,22.309h0.731V0h-24.869h-34.744v0.731
		c4.023,0,7.314,3.292,7.314,7.314V77.29c0,4.022-3.291,7.314-7.314,7.314v0.731h59.613V62.417h-0.731
		c-3.292,12.801-14.996,22.188-28.893,22.188h-1.22v-41.57c8.9,0,16.337,6.095,18.53,14.263h0.732V28.039h-0.732
		c-2.193,8.168-9.63,14.264-18.53,14.264V0.731H401.296z"/>
	<path clip-path="url(#SVGID_2_)" d="M514.914,0.731V0h-29.38v0.731c7.924,0,14.386,6.705,14.386,14.629v63.392l-15.361-44.131
		L472.612,0h-16.337h-6.461h-6.095v0.731h0.366c4.021,0,7.313,3.292,7.313,7.314v61.93c0,7.924-6.461,14.629-14.385,14.629v0.731
		h29.379v-0.731c-7.923,0-14.262-6.705-14.262-14.629V6.583l27.306,78.752h16.215h6.462h6.095v-0.731h-0.243
		c-4.024,0-7.315-3.292-7.315-7.314V15.36C500.65,7.437,506.99,0.731,514.914,0.731"/>
	<path clip-path="url(#SVGID_2_)" d="M569.407,0h-23.528H521.01v23.041h0.731c3.291-12.801,11.337-22.31,25.113-22.31v71.562v4.998
		c0,4.021-3.171,7.313-7.315,7.313v0.731h36.207v-0.731c-4.023,0-7.315-3.292-7.315-7.313v-4.998V0.731
		c13.776,0,21.822,9.509,25.114,22.31h0.731V0H569.407z"/>
</g>
</svg>
